<?xml version="1.0" encoding="UTF-8" standalone="no"?>
<svg
   width="500"
   height="125.9308"
   enable-background="new -0.137 -0.137 273 215"
   version="1.1"
   viewBox="-0.137 -0.137 499.99999 125.9308"
   xml:space="preserve"
   id="svg230"
   sodipodi:docname="Tsmc wordmark.svg"
   inkscape:version="1.4 (86a8ad7, 2024-10-11)"
   xmlns:inkscape="http://www.inkscape.org/namespaces/inkscape"
   xmlns:sodipodi="http://sodipodi.sourceforge.net/DTD/sodipodi-0.dtd"
   xmlns="http://www.w3.org/2000/svg"
   xmlns:svg="http://www.w3.org/2000/svg"><defs
   id="defs230" /><sodipodi:namedview
   id="namedview230"
   pagecolor="#ffffff"
   bordercolor="#000000"
   borderopacity="0.25"
   inkscape:showpageshadow="2"
   inkscape:pageopacity="0.0"
   inkscape:pagecheckerboard="0"
   inkscape:deskcolor="#d1d1d1"
   inkscape:zoom="1.82"
   inkscape:cx="256.59341"
   inkscape:cy="110.16484"
   inkscape:window-width="1920"
   inkscape:window-height="1001"
   inkscape:window-x="-9"
   inkscape:window-y="-9"
   inkscape:window-maximized="1"
   inkscape:current-layer="svg230" />


<path
   d="M 83.96758,36.803074 V 23.462 l -27.94927,0.262356 c -3.553898,0 -3.351084,-0.762878 -3.351084,-5.384807 L 52.964935,0.104888 38.844237,-0.137 C 34.508853,9.592494 29.124046,16.0137 26.061367,17.278962 L -0.137,28.833783 v 8.224204 l 9.80578,0.241888 c 4.35399,0 6.140242,-0.241888 6.140242,4.893588 v 54.09182 c 0,16.426077 8.955451,28.485147 32.078118,29.026607 17.378748,0.48377 27.928802,-7.2213 35.332447,-14.42027 l -2.028141,-6.92359 c -3.107335,2.08582 -5.621113,3.87021 -9.768569,3.87021 -19.730647,0 -19.200353,-15.404564 -19.200353,-28.989387 V 42.200906 c 0,-5.395971 0.444702,-5.395971 4.074888,-5.395971 H 83.96758 Z m 54.38581,87.211916 c 22.58865,-1.05314 44.3586,-5.91696 44.3586,-27.716683 0,-15.854851 -17.40666,-25.8988 -35.8646,-33.845763 C 135.01161,57.577563 117.858,50.413946 117.858,44.738873 c 0,-6.642627 13.06197,-19.488759 25.62156,-9.228971 l 21.82577,18.234661 10.0086,-2.083962 -5.62112,-27.147317 c -5.15408,0.241889 -8.74333,0.513548 -27.49154,-2.604951 -23.09103,-3.310149 -50.517451,8.248393 -50.517451,29.752268 0,14.420268 20.802401,24.393511 37.232201,31.052884 8.95545,3.838582 24.87729,9.502491 24.87729,18.210475 0,8.41213 -14.90591,10.77519 -23.35153,10.77519 -14.36631,0 -30.29187,-19.258032 -30.29187,-19.258032 h -9.452252 l 5.11687,28.764252 c 1.749039,-1.56298 8.224202,-1.33783 9.508072,-0.78149 4.58099,1.75276 21.23594,4.35399 33.03079,3.59111 z m 57.69967,-27.46363 c 0,15.91067 -4.08419,24.3563 -16.93218,25.10057 l 0.31631,2.59751 c 21.47039,-0.24375 43.35384,0 64.3237,-0.48378 l 0.24003,-1.34155 c -9.69228,0 -17.17221,-10.25234 -17.17221,-23.018468 V 56.55605 c 0,-10.550054 12.82752,-17.211288 21.54667,-16.429802 13.54761,1.272705 21.02568,9.973243 21.02568,17.702507 V 99.89128 c 0,12.82939 -3.84417,20.76518 -13.83974,21.5169 v 2.36306 h 58.96122 v -1.80672 c -8.72287,-1.06058 -14.85939,-9.03174 -14.85939,-21.04987 V 56.753282 c 0,-9.433646 8.19816,-15.854852 22.83985,-16.09488 12.82938,-0.260495 20.50655,9.247578 20.50655,18.234661 v 39.9674 c 0,13.603427 -4.09536,22.049057 -14.3291,23.109647 v 1.80672 c 21.52807,0.24002 39.20452,0.24002 60.47209,0 v -1.34155 c -11.25525,0 -15.08825,-7.40551 -15.08825,-23.014752 V 55.261017 c 0,-14.606336 -7.9544,-32.057651 -30.27326,-32.057651 -15.11058,0 -26.21697,7.386898 -32.54329,9.545287 -4.37259,1.711825 -7.46132,3.795786 -8.5033,3.795786 -2.00209,0 -4.30003,-1.283869 -7.16362,-4.35399 -5.39597,-5.699262 -15.11058,-8.987083 -25.39828,-8.987083 -13.08988,0 -26.17604,7.386898 -32.35722,9.545287 -0.72566,0.204675 -5.32154,2.511917 -5.87974,2.511917 -1.00477,0 -5.11687,0 -5.11687,-0.483776 0,-12.336307 0.78148,-6.196064 0.27724,-14.904045 h -8.49028 c -2.52309,0 -6.93848,4.633093 -12.05535,6.62402 -6.16443,2.623558 -18.47655,2.351899 -23.5562,3.646932 v 8.711703 l 13.28525,2.549131 V 58.347884 Z M 449.366,22.163246 c -37.95787,0 -66.94726,19.752976 -66.94726,54.156943 0,28.993111 26.40119,49.473611 61.80992,49.473611 26.94264,0 49.24289,-19.48318 55.63433,-31.799014 0,-3.816254 -3.83114,-5.388529 -7.40365,-5.388529 -6.17746,9.489467 -23.60458,16.707043 -30.7589,16.403753 -42.84959,-1.54436 -49.77318,-18.720299 -50.29231,-36.657251 -0.80009,-19.498063 20.26094,-36.450715 38.2165,-35.129633 10.47749,0.733108 14.10396,17.881132 23.29757,24.066031 2.8822,1.592742 9.51738,1.295034 13.89742,0.539598 3.33248,-0.539598 12.26188,-2.575181 12.26188,-10.272813 0,-6.397017 -7.94696,-13.601569 -15.59064,-18.216054 C 475.8044,25.78785 458.59311,22.163246 449.366,22.163246 Z"
   fill="#e60012"
   id="path230"
   sodipodi:nodetypes="ccccccccccsscccsssscccscscccccscssccccccccccsscssccccsscssccccssscscscsscsccccccssscccccccscs"
   style="stroke-width:1" />
</svg>
